%TF.GenerationSoftware,KiCad,Pcbnew,9.0.4*%
%TF.CreationDate,2026-04-25T20:53:58-04:00*%
%TF.ProjectId,klorball35_left,6b6c6f72-6261-46c6-9c33-355f6c656674,1*%
%TF.SameCoordinates,Original*%
%TF.FileFunction,Legend,Bot*%
%TF.FilePolarity,Positive*%
%FSLAX46Y46*%
G04 Gerber Fmt 4.6, Leading zero omitted, Abs format (unit mm)*
G04 Created by KiCad (PCBNEW 9.0.4) date 2026-04-25 20:53:58*
%MOMM*%
%LPD*%
G01*
G04 APERTURE LIST*
%ADD10C,0.150000*%
G04 APERTURE END LIST*
D10*
X255147456Y-93336697D02*
X255004558Y-93384192D01*
X255004558Y-93384192D02*
X254766462Y-93383984D01*
X254766462Y-93383984D02*
X254671266Y-93336282D01*
X254671266Y-93336282D02*
X254623689Y-93288621D01*
X254623689Y-93288621D02*
X254576153Y-93193342D01*
X254576153Y-93193342D02*
X254576236Y-93098104D01*
X254576236Y-93098104D02*
X254623938Y-93002907D01*
X254623938Y-93002907D02*
X254671598Y-92955330D01*
X254671598Y-92955330D02*
X254766878Y-92907794D01*
X254766878Y-92907794D02*
X254957396Y-92860341D01*
X254957396Y-92860341D02*
X255052675Y-92812805D01*
X255052675Y-92812805D02*
X255100336Y-92765228D01*
X255100336Y-92765228D02*
X255148038Y-92670031D01*
X255148038Y-92670031D02*
X255148121Y-92574793D01*
X255148121Y-92574793D02*
X255100585Y-92479513D01*
X255100585Y-92479513D02*
X255053008Y-92431853D01*
X255053008Y-92431853D02*
X254957811Y-92384151D01*
X254957811Y-92384151D02*
X254719716Y-92383943D01*
X254719716Y-92383943D02*
X254576817Y-92431437D01*
X254243526Y-92383527D02*
X254004558Y-93383319D01*
X254004558Y-93383319D02*
X253814705Y-92668867D01*
X253814705Y-92668867D02*
X253623606Y-93382987D01*
X253623606Y-93382987D02*
X253386383Y-92382779D01*
X252480749Y-93381989D02*
X253052178Y-93382488D01*
X252766463Y-93382239D02*
X252767336Y-92382239D01*
X252767336Y-92382239D02*
X252862449Y-92525179D01*
X252862449Y-92525179D02*
X252957604Y-92620500D01*
X252957604Y-92620500D02*
X253052801Y-92668203D01*
X251624479Y-92381242D02*
X251814955Y-92381408D01*
X251814955Y-92381408D02*
X251910152Y-92429110D01*
X251910152Y-92429110D02*
X251957729Y-92476771D01*
X251957729Y-92476771D02*
X252052843Y-92619711D01*
X252052843Y-92619711D02*
X252100296Y-92810229D01*
X252100296Y-92810229D02*
X252099963Y-93191181D01*
X252099963Y-93191181D02*
X252052261Y-93286377D01*
X252052261Y-93286377D02*
X252004600Y-93333955D01*
X252004600Y-93333955D02*
X251909321Y-93381491D01*
X251909321Y-93381491D02*
X251718845Y-93381324D01*
X251718845Y-93381324D02*
X251623648Y-93333622D01*
X251623648Y-93333622D02*
X251576071Y-93285962D01*
X251576071Y-93285962D02*
X251528535Y-93190682D01*
X251528535Y-93190682D02*
X251528743Y-92952587D01*
X251528743Y-92952587D02*
X251576445Y-92857390D01*
X251576445Y-92857390D02*
X251624105Y-92809813D01*
X251624105Y-92809813D02*
X251719385Y-92762277D01*
X251719385Y-92762277D02*
X251909861Y-92762443D01*
X251909861Y-92762443D02*
X252005057Y-92810145D01*
X252005057Y-92810145D02*
X252052635Y-92857806D01*
X252052635Y-92857806D02*
X252100171Y-92953086D01*
X172872064Y-89822844D02*
X172738964Y-89893272D01*
X172738964Y-89893272D02*
X172504100Y-89932364D01*
X172504100Y-89932364D02*
X172402336Y-89901028D01*
X172402336Y-89901028D02*
X172347544Y-89861874D01*
X172347544Y-89861874D02*
X172284935Y-89775746D01*
X172284935Y-89775746D02*
X172269298Y-89681801D01*
X172269298Y-89681801D02*
X172300634Y-89580037D01*
X172300634Y-89580037D02*
X172339788Y-89525245D01*
X172339788Y-89525245D02*
X172425916Y-89462636D01*
X172425916Y-89462636D02*
X172605988Y-89384389D01*
X172605988Y-89384389D02*
X172692116Y-89321780D01*
X172692116Y-89321780D02*
X172731270Y-89266988D01*
X172731270Y-89266988D02*
X172762606Y-89165224D01*
X172762606Y-89165224D02*
X172746969Y-89071279D01*
X172746969Y-89071279D02*
X172684359Y-88985151D01*
X172684359Y-88985151D02*
X172629568Y-88945997D01*
X172629568Y-88945997D02*
X172527804Y-88914661D01*
X172527804Y-88914661D02*
X172292940Y-88953753D01*
X172292940Y-88953753D02*
X172159840Y-89024181D01*
X171823212Y-89031937D02*
X171752535Y-90057459D01*
X171752535Y-90057459D02*
X171447367Y-89384140D01*
X171447367Y-89384140D02*
X171376752Y-90120006D01*
X171376752Y-90120006D02*
X170977701Y-89172669D01*
X170249404Y-90307648D02*
X170813078Y-90213827D01*
X170531241Y-90260738D02*
X170367054Y-89274308D01*
X170367054Y-89274308D02*
X170484455Y-89399590D01*
X170484455Y-89399590D02*
X170594038Y-89477899D01*
X170594038Y-89477899D02*
X170695802Y-89509235D01*
X233113780Y-131917484D02*
X232970882Y-131964979D01*
X232970882Y-131964979D02*
X232732786Y-131964771D01*
X232732786Y-131964771D02*
X232637590Y-131917069D01*
X232637590Y-131917069D02*
X232590013Y-131869408D01*
X232590013Y-131869408D02*
X232542477Y-131774129D01*
X232542477Y-131774129D02*
X232542560Y-131678891D01*
X232542560Y-131678891D02*
X232590262Y-131583694D01*
X232590262Y-131583694D02*
X232637922Y-131536117D01*
X232637922Y-131536117D02*
X232733202Y-131488581D01*
X232733202Y-131488581D02*
X232923720Y-131441128D01*
X232923720Y-131441128D02*
X233018999Y-131393592D01*
X233018999Y-131393592D02*
X233066660Y-131346015D01*
X233066660Y-131346015D02*
X233114362Y-131250818D01*
X233114362Y-131250818D02*
X233114445Y-131155580D01*
X233114445Y-131155580D02*
X233066909Y-131060300D01*
X233066909Y-131060300D02*
X233019332Y-131012640D01*
X233019332Y-131012640D02*
X232924135Y-130964938D01*
X232924135Y-130964938D02*
X232686040Y-130964730D01*
X232686040Y-130964730D02*
X232543141Y-131012224D01*
X232209850Y-130964314D02*
X231970882Y-131964106D01*
X231970882Y-131964106D02*
X231781029Y-131249654D01*
X231781029Y-131249654D02*
X231589930Y-131963774D01*
X231589930Y-131963774D02*
X231352707Y-130963566D01*
X230447073Y-131962776D02*
X231018502Y-131963275D01*
X230732787Y-131963026D02*
X230733660Y-130963026D01*
X230733660Y-130963026D02*
X230828773Y-131105966D01*
X230828773Y-131105966D02*
X230923928Y-131201287D01*
X230923928Y-131201287D02*
X231019125Y-131248990D01*
X229828898Y-130962237D02*
X229733660Y-130962153D01*
X229733660Y-130962153D02*
X229638381Y-131009689D01*
X229638381Y-131009689D02*
X229590720Y-131057267D01*
X229590720Y-131057267D02*
X229543018Y-131152463D01*
X229543018Y-131152463D02*
X229495233Y-131342898D01*
X229495233Y-131342898D02*
X229495025Y-131580993D01*
X229495025Y-131580993D02*
X229542478Y-131771511D01*
X229542478Y-131771511D02*
X229590014Y-131866790D01*
X229590014Y-131866790D02*
X229637591Y-131914451D01*
X229637591Y-131914451D02*
X229732788Y-131962153D01*
X229732788Y-131962153D02*
X229828026Y-131962236D01*
X229828026Y-131962236D02*
X229923305Y-131914700D01*
X229923305Y-131914700D02*
X229970966Y-131867123D01*
X229970966Y-131867123D02*
X230018668Y-131771926D01*
X230018668Y-131771926D02*
X230066453Y-131581492D01*
X230066453Y-131581492D02*
X230066661Y-131343397D01*
X230066661Y-131343397D02*
X230019208Y-131152879D01*
X230019208Y-131152879D02*
X229971672Y-131057599D01*
X229971672Y-131057599D02*
X229924095Y-131009939D01*
X229924095Y-131009939D02*
X229828898Y-130962237D01*
X193590399Y-74721648D02*
X193452710Y-74782620D01*
X193452710Y-74782620D02*
X193215691Y-74805233D01*
X193215691Y-74805233D02*
X193116361Y-74766875D01*
X193116361Y-74766875D02*
X193064434Y-74723994D01*
X193064434Y-74723994D02*
X193007985Y-74633709D01*
X193007985Y-74633709D02*
X192998940Y-74538901D01*
X192998940Y-74538901D02*
X193037298Y-74439571D01*
X193037298Y-74439571D02*
X193080179Y-74387645D01*
X193080179Y-74387645D02*
X193170464Y-74331195D01*
X193170464Y-74331195D02*
X193355556Y-74265701D01*
X193355556Y-74265701D02*
X193445841Y-74209252D01*
X193445841Y-74209252D02*
X193488722Y-74157325D01*
X193488722Y-74157325D02*
X193527081Y-74057995D01*
X193527081Y-74057995D02*
X193518035Y-73963187D01*
X193518035Y-73963187D02*
X193461586Y-73872902D01*
X193461586Y-73872902D02*
X193409659Y-73830021D01*
X193409659Y-73830021D02*
X193310329Y-73791663D01*
X193310329Y-73791663D02*
X193073310Y-73814276D01*
X193073310Y-73814276D02*
X192935622Y-73875248D01*
X192599272Y-73859504D02*
X192457230Y-74877597D01*
X192457230Y-74877597D02*
X192199775Y-74184631D01*
X192199775Y-74184631D02*
X192078000Y-74913778D01*
X192078000Y-74913778D02*
X191746004Y-73940913D01*
X190971799Y-74349625D02*
X191035117Y-75013278D01*
X191172636Y-73947781D02*
X191477496Y-74636225D01*
X191477496Y-74636225D02*
X190861247Y-74695020D01*
X215391341Y-84431097D02*
X215250650Y-84484779D01*
X215250650Y-84484779D02*
X215012773Y-84494957D01*
X215012773Y-84494957D02*
X214915586Y-84451453D01*
X214915586Y-84451453D02*
X214865975Y-84405913D01*
X214865975Y-84405913D02*
X214814328Y-84312797D01*
X214814328Y-84312797D02*
X214810257Y-84217646D01*
X214810257Y-84217646D02*
X214853761Y-84120460D01*
X214853761Y-84120460D02*
X214899301Y-84070848D01*
X214899301Y-84070848D02*
X214992417Y-84019202D01*
X214992417Y-84019202D02*
X215180683Y-83963484D01*
X215180683Y-83963484D02*
X215273799Y-83911837D01*
X215273799Y-83911837D02*
X215319339Y-83862226D01*
X215319339Y-83862226D02*
X215362843Y-83765039D01*
X215362843Y-83765039D02*
X215358772Y-83669888D01*
X215358772Y-83669888D02*
X215307125Y-83576773D01*
X215307125Y-83576773D02*
X215257514Y-83531233D01*
X215257514Y-83531233D02*
X215160327Y-83487729D01*
X215160327Y-83487729D02*
X214922450Y-83497907D01*
X214922450Y-83497907D02*
X214781759Y-83551589D01*
X214446694Y-83518263D02*
X214251564Y-84527526D01*
X214251564Y-84527526D02*
X214030728Y-83822036D01*
X214030728Y-83822036D02*
X213870960Y-84543811D01*
X213870960Y-84543811D02*
X213590335Y-83554903D01*
X213085325Y-84005475D02*
X213178440Y-83953828D01*
X213178440Y-83953828D02*
X213223980Y-83904217D01*
X213223980Y-83904217D02*
X213267485Y-83807030D01*
X213267485Y-83807030D02*
X213265449Y-83759455D01*
X213265449Y-83759455D02*
X213213802Y-83666339D01*
X213213802Y-83666339D02*
X213164191Y-83620799D01*
X213164191Y-83620799D02*
X213067005Y-83577295D01*
X213067005Y-83577295D02*
X212876702Y-83585437D01*
X212876702Y-83585437D02*
X212783587Y-83637084D01*
X212783587Y-83637084D02*
X212738047Y-83686695D01*
X212738047Y-83686695D02*
X212694543Y-83783882D01*
X212694543Y-83783882D02*
X212696578Y-83831457D01*
X212696578Y-83831457D02*
X212748225Y-83924573D01*
X212748225Y-83924573D02*
X212797836Y-83970113D01*
X212797836Y-83970113D02*
X212895023Y-84013617D01*
X212895023Y-84013617D02*
X213085325Y-84005475D01*
X213085325Y-84005475D02*
X213182512Y-84048979D01*
X213182512Y-84048979D02*
X213232123Y-84094519D01*
X213232123Y-84094519D02*
X213283769Y-84187634D01*
X213283769Y-84187634D02*
X213291912Y-84377936D01*
X213291912Y-84377936D02*
X213248407Y-84475123D01*
X213248407Y-84475123D02*
X213202868Y-84524734D01*
X213202868Y-84524734D02*
X213109752Y-84576381D01*
X213109752Y-84576381D02*
X212919450Y-84584523D01*
X212919450Y-84584523D02*
X212822263Y-84541019D01*
X212822263Y-84541019D02*
X212772652Y-84495479D01*
X212772652Y-84495479D02*
X212721006Y-84402363D01*
X212721006Y-84402363D02*
X212712863Y-84212061D01*
X212712863Y-84212061D02*
X212756367Y-84114875D01*
X212756367Y-84114875D02*
X212801907Y-84065264D01*
X212801907Y-84065264D02*
X212895023Y-84013617D01*
X256992162Y-136899422D02*
X256841840Y-136908313D01*
X256841840Y-136908313D02*
X256611911Y-136846489D01*
X256611911Y-136846489D02*
X256532305Y-136775773D01*
X256532305Y-136775773D02*
X256498684Y-136717423D01*
X256498684Y-136717423D02*
X256477428Y-136613086D01*
X256477428Y-136613086D02*
X256502158Y-136521115D01*
X256502158Y-136521115D02*
X256572873Y-136441508D01*
X256572873Y-136441508D02*
X256631223Y-136407888D01*
X256631223Y-136407888D02*
X256735560Y-136386632D01*
X256735560Y-136386632D02*
X256931867Y-136390105D01*
X256931867Y-136390105D02*
X257036204Y-136368849D01*
X257036204Y-136368849D02*
X257094554Y-136335229D01*
X257094554Y-136335229D02*
X257165270Y-136255622D01*
X257165270Y-136255622D02*
X257189999Y-136163651D01*
X257189999Y-136163651D02*
X257168743Y-136059314D01*
X257168743Y-136059314D02*
X257135122Y-136000964D01*
X257135122Y-136000964D02*
X257055516Y-135930248D01*
X257055516Y-135930248D02*
X256825587Y-135868424D01*
X256825587Y-135868424D02*
X256675265Y-135877315D01*
X256365730Y-135744776D02*
X255876140Y-136648651D01*
X255876140Y-136648651D02*
X255877670Y-135909406D01*
X255877670Y-135909406D02*
X255508254Y-136549732D01*
X255508254Y-136549732D02*
X255537988Y-135522208D01*
X254404598Y-136252976D02*
X254956426Y-136401354D01*
X254680512Y-136327165D02*
X254940174Y-135361465D01*
X254940174Y-135361465D02*
X254995051Y-135524152D01*
X254995051Y-135524152D02*
X255062292Y-135640853D01*
X255062292Y-135640853D02*
X255141899Y-135711569D01*
X253749963Y-135386609D02*
X253576855Y-136030408D01*
X254078811Y-135080547D02*
X254123266Y-135832157D01*
X254123266Y-135832157D02*
X253525452Y-135671414D01*
X278390639Y-147815679D02*
X278243138Y-147785361D01*
X278243138Y-147785361D02*
X278037046Y-147666134D01*
X278037046Y-147666134D02*
X277978454Y-147577224D01*
X277978454Y-147577224D02*
X277961081Y-147512160D01*
X277961081Y-147512160D02*
X277967554Y-147405878D01*
X277967554Y-147405878D02*
X278015245Y-147323441D01*
X278015245Y-147323441D02*
X278104154Y-147264849D01*
X278104154Y-147264849D02*
X278169218Y-147247476D01*
X278169218Y-147247476D02*
X278275501Y-147253949D01*
X278275501Y-147253949D02*
X278464220Y-147308112D01*
X278464220Y-147308112D02*
X278570503Y-147314585D01*
X278570503Y-147314585D02*
X278635567Y-147297212D01*
X278635567Y-147297212D02*
X278724476Y-147238620D01*
X278724476Y-147238620D02*
X278772167Y-147156183D01*
X278772167Y-147156183D02*
X278778640Y-147049901D01*
X278778640Y-147049901D02*
X278761267Y-146984837D01*
X278761267Y-146984837D02*
X278702675Y-146895927D01*
X278702675Y-146895927D02*
X278496583Y-146776700D01*
X278496583Y-146776700D02*
X278349082Y-146746382D01*
X278084398Y-146538245D02*
X277377549Y-147284606D01*
X277377549Y-147284606D02*
X277570358Y-146570946D01*
X277570358Y-146570946D02*
X277047801Y-147093842D01*
X277047801Y-147093842D02*
X277342464Y-146109025D01*
X276058557Y-146521550D02*
X276553179Y-146807696D01*
X276305868Y-146664623D02*
X276806624Y-145799034D01*
X276806624Y-145799034D02*
X276817524Y-145970381D01*
X276817524Y-145970381D02*
X276852270Y-146100509D01*
X276852270Y-146100509D02*
X276910862Y-146189418D01*
X275850081Y-145740782D02*
X275956364Y-145747254D01*
X275956364Y-145747254D02*
X276021428Y-145729881D01*
X276021428Y-145729881D02*
X276110337Y-145671290D01*
X276110337Y-145671290D02*
X276134183Y-145630071D01*
X276134183Y-145630071D02*
X276140655Y-145523788D01*
X276140655Y-145523788D02*
X276123282Y-145458724D01*
X276123282Y-145458724D02*
X276064691Y-145369815D01*
X276064691Y-145369815D02*
X275899817Y-145274433D01*
X275899817Y-145274433D02*
X275793534Y-145267960D01*
X275793534Y-145267960D02*
X275728470Y-145285333D01*
X275728470Y-145285333D02*
X275639560Y-145343925D01*
X275639560Y-145343925D02*
X275615715Y-145385143D01*
X275615715Y-145385143D02*
X275609242Y-145491426D01*
X275609242Y-145491426D02*
X275626615Y-145556490D01*
X275626615Y-145556490D02*
X275685207Y-145645400D01*
X275685207Y-145645400D02*
X275850081Y-145740782D01*
X275850081Y-145740782D02*
X275908673Y-145829691D01*
X275908673Y-145829691D02*
X275926046Y-145894755D01*
X275926046Y-145894755D02*
X275919573Y-146001038D01*
X275919573Y-146001038D02*
X275824191Y-146165912D01*
X275824191Y-146165912D02*
X275735282Y-146224503D01*
X275735282Y-146224503D02*
X275670218Y-146241876D01*
X275670218Y-146241876D02*
X275563935Y-146235404D01*
X275563935Y-146235404D02*
X275399061Y-146140022D01*
X275399061Y-146140022D02*
X275340469Y-146051112D01*
X275340469Y-146051112D02*
X275323096Y-145986048D01*
X275323096Y-145986048D02*
X275329569Y-145879766D01*
X275329569Y-145879766D02*
X275424951Y-145714892D01*
X275424951Y-145714892D02*
X275513860Y-145656300D01*
X275513860Y-145656300D02*
X275578924Y-145638927D01*
X275578924Y-145638927D02*
X275685207Y-145645400D01*
X175728915Y-106986713D02*
X175595815Y-107057141D01*
X175595815Y-107057141D02*
X175360951Y-107096233D01*
X175360951Y-107096233D02*
X175259187Y-107064897D01*
X175259187Y-107064897D02*
X175204395Y-107025743D01*
X175204395Y-107025743D02*
X175141786Y-106939615D01*
X175141786Y-106939615D02*
X175126149Y-106845670D01*
X175126149Y-106845670D02*
X175157485Y-106743906D01*
X175157485Y-106743906D02*
X175196639Y-106689114D01*
X175196639Y-106689114D02*
X175282767Y-106626505D01*
X175282767Y-106626505D02*
X175462839Y-106548258D01*
X175462839Y-106548258D02*
X175548967Y-106485649D01*
X175548967Y-106485649D02*
X175588121Y-106430857D01*
X175588121Y-106430857D02*
X175619457Y-106329093D01*
X175619457Y-106329093D02*
X175603820Y-106235148D01*
X175603820Y-106235148D02*
X175541210Y-106149020D01*
X175541210Y-106149020D02*
X175486419Y-106109866D01*
X175486419Y-106109866D02*
X175384655Y-106078530D01*
X175384655Y-106078530D02*
X175149791Y-106117622D01*
X175149791Y-106117622D02*
X175016691Y-106188050D01*
X174680063Y-106195806D02*
X174609386Y-107221328D01*
X174609386Y-107221328D02*
X174304218Y-106548009D01*
X174304218Y-106548009D02*
X174233603Y-107283875D01*
X174233603Y-107283875D02*
X173834552Y-106336538D01*
X173521379Y-106485213D02*
X173466588Y-106446058D01*
X173466588Y-106446058D02*
X173364824Y-106414722D01*
X173364824Y-106414722D02*
X173129960Y-106453814D01*
X173129960Y-106453814D02*
X173043833Y-106516424D01*
X173043833Y-106516424D02*
X173004678Y-106571215D01*
X173004678Y-106571215D02*
X172973342Y-106672979D01*
X172973342Y-106672979D02*
X172988979Y-106766925D01*
X172988979Y-106766925D02*
X173059407Y-106900025D01*
X173059407Y-106900025D02*
X173716902Y-107369878D01*
X173716902Y-107369878D02*
X173106255Y-107471517D01*
X196895601Y-109364333D02*
X196757912Y-109425305D01*
X196757912Y-109425305D02*
X196520893Y-109447918D01*
X196520893Y-109447918D02*
X196421563Y-109409560D01*
X196421563Y-109409560D02*
X196369636Y-109366679D01*
X196369636Y-109366679D02*
X196313187Y-109276394D01*
X196313187Y-109276394D02*
X196304142Y-109181586D01*
X196304142Y-109181586D02*
X196342500Y-109082256D01*
X196342500Y-109082256D02*
X196385381Y-109030330D01*
X196385381Y-109030330D02*
X196475666Y-108973880D01*
X196475666Y-108973880D02*
X196660758Y-108908386D01*
X196660758Y-108908386D02*
X196751043Y-108851937D01*
X196751043Y-108851937D02*
X196793924Y-108800010D01*
X196793924Y-108800010D02*
X196832283Y-108700680D01*
X196832283Y-108700680D02*
X196823237Y-108605872D01*
X196823237Y-108605872D02*
X196766788Y-108515587D01*
X196766788Y-108515587D02*
X196714861Y-108472706D01*
X196714861Y-108472706D02*
X196615531Y-108434348D01*
X196615531Y-108434348D02*
X196378512Y-108456961D01*
X196378512Y-108456961D02*
X196240824Y-108517933D01*
X195904474Y-108502189D02*
X195762432Y-109520282D01*
X195762432Y-109520282D02*
X195504977Y-108827316D01*
X195504977Y-108827316D02*
X195383202Y-109556463D01*
X195383202Y-109556463D02*
X195051206Y-108583598D01*
X194245342Y-108660484D02*
X194434957Y-108642393D01*
X194434957Y-108642393D02*
X194534287Y-108680751D01*
X194534287Y-108680751D02*
X194586214Y-108723632D01*
X194586214Y-108723632D02*
X194694590Y-108856798D01*
X194694590Y-108856798D02*
X194760084Y-109041891D01*
X194760084Y-109041891D02*
X194796266Y-109421121D01*
X194796266Y-109421121D02*
X194757908Y-109520451D01*
X194757908Y-109520451D02*
X194715027Y-109572378D01*
X194715027Y-109572378D02*
X194624742Y-109628827D01*
X194624742Y-109628827D02*
X194435127Y-109646918D01*
X194435127Y-109646918D02*
X194335796Y-109608559D01*
X194335796Y-109608559D02*
X194283870Y-109565678D01*
X194283870Y-109565678D02*
X194227421Y-109475394D01*
X194227421Y-109475394D02*
X194204807Y-109238375D01*
X194204807Y-109238375D02*
X194243165Y-109139044D01*
X194243165Y-109139044D02*
X194286046Y-109087118D01*
X194286046Y-109087118D02*
X194376331Y-109030669D01*
X194376331Y-109030669D02*
X194565946Y-109012578D01*
X194565946Y-109012578D02*
X194665277Y-109050936D01*
X194665277Y-109050936D02*
X194717203Y-109093817D01*
X194717203Y-109093817D02*
X194773652Y-109184102D01*
X236764393Y-73920648D02*
X236621495Y-73968143D01*
X236621495Y-73968143D02*
X236383399Y-73967935D01*
X236383399Y-73967935D02*
X236288203Y-73920233D01*
X236288203Y-73920233D02*
X236240626Y-73872572D01*
X236240626Y-73872572D02*
X236193090Y-73777293D01*
X236193090Y-73777293D02*
X236193173Y-73682055D01*
X236193173Y-73682055D02*
X236240875Y-73586858D01*
X236240875Y-73586858D02*
X236288535Y-73539281D01*
X236288535Y-73539281D02*
X236383815Y-73491745D01*
X236383815Y-73491745D02*
X236574333Y-73444292D01*
X236574333Y-73444292D02*
X236669612Y-73396756D01*
X236669612Y-73396756D02*
X236717273Y-73349179D01*
X236717273Y-73349179D02*
X236764975Y-73253982D01*
X236764975Y-73253982D02*
X236765058Y-73158744D01*
X236765058Y-73158744D02*
X236717522Y-73063464D01*
X236717522Y-73063464D02*
X236669945Y-73015804D01*
X236669945Y-73015804D02*
X236574748Y-72968102D01*
X236574748Y-72968102D02*
X236336653Y-72967894D01*
X236336653Y-72967894D02*
X236193754Y-73015388D01*
X235860463Y-72967478D02*
X235621495Y-73967270D01*
X235621495Y-73967270D02*
X235431642Y-73252818D01*
X235431642Y-73252818D02*
X235240543Y-73966938D01*
X235240543Y-73966938D02*
X235003320Y-72966730D01*
X234097686Y-73965940D02*
X234669115Y-73966439D01*
X234383400Y-73966190D02*
X234384273Y-72966190D01*
X234384273Y-72966190D02*
X234479386Y-73109130D01*
X234479386Y-73109130D02*
X234574541Y-73204451D01*
X234574541Y-73204451D02*
X234669738Y-73252154D01*
X233145306Y-73965109D02*
X233716734Y-73965608D01*
X233431020Y-73965359D02*
X233431892Y-72965359D01*
X233431892Y-72965359D02*
X233527006Y-73108299D01*
X233527006Y-73108299D02*
X233622161Y-73203620D01*
X233622161Y-73203620D02*
X233717357Y-73251322D01*
X255132272Y-110736691D02*
X254989374Y-110784186D01*
X254989374Y-110784186D02*
X254751278Y-110783978D01*
X254751278Y-110783978D02*
X254656082Y-110736276D01*
X254656082Y-110736276D02*
X254608505Y-110688615D01*
X254608505Y-110688615D02*
X254560969Y-110593336D01*
X254560969Y-110593336D02*
X254561052Y-110498098D01*
X254561052Y-110498098D02*
X254608754Y-110402901D01*
X254608754Y-110402901D02*
X254656414Y-110355324D01*
X254656414Y-110355324D02*
X254751694Y-110307788D01*
X254751694Y-110307788D02*
X254942212Y-110260335D01*
X254942212Y-110260335D02*
X255037491Y-110212799D01*
X255037491Y-110212799D02*
X255085152Y-110165222D01*
X255085152Y-110165222D02*
X255132854Y-110070025D01*
X255132854Y-110070025D02*
X255132937Y-109974787D01*
X255132937Y-109974787D02*
X255085401Y-109879507D01*
X255085401Y-109879507D02*
X255037824Y-109831847D01*
X255037824Y-109831847D02*
X254942627Y-109784145D01*
X254942627Y-109784145D02*
X254704532Y-109783937D01*
X254704532Y-109783937D02*
X254561633Y-109831431D01*
X254228342Y-109783521D02*
X253989374Y-110783313D01*
X253989374Y-110783313D02*
X253799521Y-110068861D01*
X253799521Y-110068861D02*
X253608422Y-110782981D01*
X253608422Y-110782981D02*
X253371199Y-109782773D01*
X252465565Y-110781983D02*
X253036994Y-110782482D01*
X252751279Y-110782233D02*
X252752152Y-109782233D01*
X252752152Y-109782233D02*
X252847265Y-109925173D01*
X252847265Y-109925173D02*
X252942420Y-110020494D01*
X252942420Y-110020494D02*
X253037617Y-110068197D01*
X252133105Y-109781693D02*
X251466438Y-109781111D01*
X251466438Y-109781111D02*
X251894137Y-110781485D01*
X178585766Y-124150582D02*
X178452666Y-124221010D01*
X178452666Y-124221010D02*
X178217802Y-124260102D01*
X178217802Y-124260102D02*
X178116038Y-124228766D01*
X178116038Y-124228766D02*
X178061246Y-124189612D01*
X178061246Y-124189612D02*
X177998637Y-124103484D01*
X177998637Y-124103484D02*
X177983000Y-124009539D01*
X177983000Y-124009539D02*
X178014336Y-123907775D01*
X178014336Y-123907775D02*
X178053490Y-123852983D01*
X178053490Y-123852983D02*
X178139618Y-123790374D01*
X178139618Y-123790374D02*
X178319690Y-123712127D01*
X178319690Y-123712127D02*
X178405818Y-123649518D01*
X178405818Y-123649518D02*
X178444972Y-123594726D01*
X178444972Y-123594726D02*
X178476308Y-123492962D01*
X178476308Y-123492962D02*
X178460671Y-123399017D01*
X178460671Y-123399017D02*
X178398061Y-123312889D01*
X178398061Y-123312889D02*
X178343270Y-123273735D01*
X178343270Y-123273735D02*
X178241506Y-123242399D01*
X178241506Y-123242399D02*
X178006642Y-123281491D01*
X178006642Y-123281491D02*
X177873542Y-123351919D01*
X177536914Y-123359675D02*
X177466237Y-124385197D01*
X177466237Y-124385197D02*
X177161069Y-123711878D01*
X177161069Y-123711878D02*
X177090454Y-124447744D01*
X177090454Y-124447744D02*
X176691403Y-123500407D01*
X176409566Y-123547317D02*
X175798920Y-123648957D01*
X175798920Y-123648957D02*
X176190277Y-123970011D01*
X176190277Y-123970011D02*
X176049358Y-123993466D01*
X176049358Y-123993466D02*
X175963231Y-124056075D01*
X175963231Y-124056075D02*
X175924077Y-124110867D01*
X175924077Y-124110867D02*
X175892741Y-124212631D01*
X175892741Y-124212631D02*
X175931833Y-124447495D01*
X175931833Y-124447495D02*
X175994442Y-124533622D01*
X175994442Y-124533622D02*
X176049234Y-124572777D01*
X176049234Y-124572777D02*
X176150998Y-124604112D01*
X176150998Y-124604112D02*
X176432835Y-124557202D01*
X176432835Y-124557202D02*
X176518962Y-124494592D01*
X176518962Y-124494592D02*
X176558116Y-124439801D01*
X255162640Y-75936704D02*
X255019742Y-75984199D01*
X255019742Y-75984199D02*
X254781646Y-75983991D01*
X254781646Y-75983991D02*
X254686450Y-75936289D01*
X254686450Y-75936289D02*
X254638873Y-75888628D01*
X254638873Y-75888628D02*
X254591337Y-75793349D01*
X254591337Y-75793349D02*
X254591420Y-75698111D01*
X254591420Y-75698111D02*
X254639122Y-75602914D01*
X254639122Y-75602914D02*
X254686782Y-75555337D01*
X254686782Y-75555337D02*
X254782062Y-75507801D01*
X254782062Y-75507801D02*
X254972580Y-75460348D01*
X254972580Y-75460348D02*
X255067859Y-75412812D01*
X255067859Y-75412812D02*
X255115520Y-75365235D01*
X255115520Y-75365235D02*
X255163222Y-75270038D01*
X255163222Y-75270038D02*
X255163305Y-75174800D01*
X255163305Y-75174800D02*
X255115769Y-75079520D01*
X255115769Y-75079520D02*
X255068192Y-75031860D01*
X255068192Y-75031860D02*
X254972995Y-74984158D01*
X254972995Y-74984158D02*
X254734900Y-74983950D01*
X254734900Y-74983950D02*
X254592001Y-75031444D01*
X254258710Y-74983534D02*
X254019742Y-75983326D01*
X254019742Y-75983326D02*
X253829889Y-75268874D01*
X253829889Y-75268874D02*
X253638790Y-75982994D01*
X253638790Y-75982994D02*
X253401567Y-74982786D01*
X252495933Y-75981996D02*
X253067362Y-75982495D01*
X252781647Y-75982246D02*
X252782520Y-74982246D01*
X252782520Y-74982246D02*
X252877633Y-75125186D01*
X252877633Y-75125186D02*
X252972788Y-75220507D01*
X252972788Y-75220507D02*
X253067985Y-75268210D01*
X251592044Y-74981207D02*
X252068235Y-74981623D01*
X252068235Y-74981623D02*
X252115438Y-75457855D01*
X252115438Y-75457855D02*
X252067861Y-75410194D01*
X252067861Y-75410194D02*
X251972664Y-75362492D01*
X251972664Y-75362492D02*
X251734569Y-75362284D01*
X251734569Y-75362284D02*
X251639289Y-75409820D01*
X251639289Y-75409820D02*
X251591629Y-75457397D01*
X251591629Y-75457397D02*
X251543927Y-75552594D01*
X251543927Y-75552594D02*
X251543719Y-75790689D01*
X251543719Y-75790689D02*
X251591255Y-75885969D01*
X251591255Y-75885969D02*
X251638832Y-75933629D01*
X251638832Y-75933629D02*
X251734029Y-75981331D01*
X251734029Y-75981331D02*
X251972124Y-75981539D01*
X251972124Y-75981539D02*
X252067403Y-75934003D01*
X252067403Y-75934003D02*
X252115064Y-75886426D01*
X195243000Y-92042990D02*
X195105311Y-92103962D01*
X195105311Y-92103962D02*
X194868292Y-92126575D01*
X194868292Y-92126575D02*
X194768962Y-92088217D01*
X194768962Y-92088217D02*
X194717035Y-92045336D01*
X194717035Y-92045336D02*
X194660586Y-91955051D01*
X194660586Y-91955051D02*
X194651541Y-91860243D01*
X194651541Y-91860243D02*
X194689899Y-91760913D01*
X194689899Y-91760913D02*
X194732780Y-91708987D01*
X194732780Y-91708987D02*
X194823065Y-91652537D01*
X194823065Y-91652537D02*
X195008157Y-91587043D01*
X195008157Y-91587043D02*
X195098442Y-91530594D01*
X195098442Y-91530594D02*
X195141323Y-91478667D01*
X195141323Y-91478667D02*
X195179682Y-91379337D01*
X195179682Y-91379337D02*
X195170636Y-91284529D01*
X195170636Y-91284529D02*
X195114187Y-91194244D01*
X195114187Y-91194244D02*
X195062260Y-91151363D01*
X195062260Y-91151363D02*
X194962930Y-91113005D01*
X194962930Y-91113005D02*
X194725911Y-91135618D01*
X194725911Y-91135618D02*
X194588223Y-91196590D01*
X194251873Y-91180846D02*
X194109831Y-92198939D01*
X194109831Y-92198939D02*
X193852376Y-91505973D01*
X193852376Y-91505973D02*
X193730601Y-92235120D01*
X193730601Y-92235120D02*
X193398605Y-91262255D01*
X192545337Y-91343663D02*
X193019375Y-91298436D01*
X193019375Y-91298436D02*
X193112006Y-91767951D01*
X193112006Y-91767951D02*
X193060080Y-91725070D01*
X193060080Y-91725070D02*
X192960749Y-91686712D01*
X192960749Y-91686712D02*
X192723730Y-91709326D01*
X192723730Y-91709326D02*
X192633445Y-91765775D01*
X192633445Y-91765775D02*
X192590564Y-91817701D01*
X192590564Y-91817701D02*
X192552206Y-91917032D01*
X192552206Y-91917032D02*
X192574820Y-92154051D01*
X192574820Y-92154051D02*
X192631269Y-92244335D01*
X192631269Y-92244335D02*
X192683195Y-92287216D01*
X192683195Y-92287216D02*
X192782526Y-92325575D01*
X192782526Y-92325575D02*
X193019545Y-92302961D01*
X193019545Y-92302961D02*
X193109829Y-92246512D01*
X193109829Y-92246512D02*
X193152710Y-92194585D01*
X236749208Y-91320641D02*
X236606310Y-91368136D01*
X236606310Y-91368136D02*
X236368214Y-91367928D01*
X236368214Y-91367928D02*
X236273018Y-91320226D01*
X236273018Y-91320226D02*
X236225441Y-91272565D01*
X236225441Y-91272565D02*
X236177905Y-91177286D01*
X236177905Y-91177286D02*
X236177988Y-91082048D01*
X236177988Y-91082048D02*
X236225690Y-90986851D01*
X236225690Y-90986851D02*
X236273350Y-90939274D01*
X236273350Y-90939274D02*
X236368630Y-90891738D01*
X236368630Y-90891738D02*
X236559148Y-90844285D01*
X236559148Y-90844285D02*
X236654427Y-90796749D01*
X236654427Y-90796749D02*
X236702088Y-90749172D01*
X236702088Y-90749172D02*
X236749790Y-90653975D01*
X236749790Y-90653975D02*
X236749873Y-90558737D01*
X236749873Y-90558737D02*
X236702337Y-90463457D01*
X236702337Y-90463457D02*
X236654760Y-90415797D01*
X236654760Y-90415797D02*
X236559563Y-90368095D01*
X236559563Y-90368095D02*
X236321468Y-90367887D01*
X236321468Y-90367887D02*
X236178569Y-90415381D01*
X235845278Y-90367471D02*
X235606310Y-91367263D01*
X235606310Y-91367263D02*
X235416457Y-90652811D01*
X235416457Y-90652811D02*
X235225358Y-91366931D01*
X235225358Y-91366931D02*
X234988135Y-90366723D01*
X234082501Y-91365933D02*
X234653930Y-91366432D01*
X234368215Y-91366183D02*
X234369088Y-90366183D01*
X234369088Y-90366183D02*
X234464201Y-90509123D01*
X234464201Y-90509123D02*
X234559356Y-90604444D01*
X234559356Y-90604444D02*
X234654553Y-90652147D01*
X233702338Y-90460839D02*
X233654761Y-90413179D01*
X233654761Y-90413179D02*
X233559564Y-90365477D01*
X233559564Y-90365477D02*
X233321469Y-90365269D01*
X233321469Y-90365269D02*
X233226190Y-90412805D01*
X233226190Y-90412805D02*
X233178529Y-90460382D01*
X233178529Y-90460382D02*
X233130827Y-90555579D01*
X233130827Y-90555579D02*
X233130744Y-90650817D01*
X233130744Y-90650817D02*
X233178238Y-90793715D01*
X233178238Y-90793715D02*
X233749168Y-91365642D01*
X233749168Y-91365642D02*
X233130121Y-91365102D01*
X236734024Y-108720635D02*
X236591126Y-108768130D01*
X236591126Y-108768130D02*
X236353030Y-108767922D01*
X236353030Y-108767922D02*
X236257834Y-108720220D01*
X236257834Y-108720220D02*
X236210257Y-108672559D01*
X236210257Y-108672559D02*
X236162721Y-108577280D01*
X236162721Y-108577280D02*
X236162804Y-108482042D01*
X236162804Y-108482042D02*
X236210506Y-108386845D01*
X236210506Y-108386845D02*
X236258166Y-108339268D01*
X236258166Y-108339268D02*
X236353446Y-108291732D01*
X236353446Y-108291732D02*
X236543964Y-108244279D01*
X236543964Y-108244279D02*
X236639243Y-108196743D01*
X236639243Y-108196743D02*
X236686904Y-108149166D01*
X236686904Y-108149166D02*
X236734606Y-108053969D01*
X236734606Y-108053969D02*
X236734689Y-107958731D01*
X236734689Y-107958731D02*
X236687153Y-107863451D01*
X236687153Y-107863451D02*
X236639576Y-107815791D01*
X236639576Y-107815791D02*
X236544379Y-107768089D01*
X236544379Y-107768089D02*
X236306284Y-107767881D01*
X236306284Y-107767881D02*
X236163385Y-107815375D01*
X235830094Y-107767465D02*
X235591126Y-108767257D01*
X235591126Y-108767257D02*
X235401273Y-108052805D01*
X235401273Y-108052805D02*
X235210174Y-108766925D01*
X235210174Y-108766925D02*
X234972951Y-107766717D01*
X234067317Y-108765927D02*
X234638746Y-108766426D01*
X234353031Y-108766177D02*
X234353904Y-107766177D01*
X234353904Y-107766177D02*
X234449017Y-107909117D01*
X234449017Y-107909117D02*
X234544172Y-108004438D01*
X234544172Y-108004438D02*
X234639369Y-108052141D01*
X233734857Y-107765637D02*
X233115809Y-107765097D01*
X233115809Y-107765097D02*
X233448810Y-108146340D01*
X233448810Y-108146340D02*
X233305953Y-108146215D01*
X233305953Y-108146215D02*
X233210673Y-108193751D01*
X233210673Y-108193751D02*
X233163013Y-108241328D01*
X233163013Y-108241328D02*
X233115311Y-108336525D01*
X233115311Y-108336525D02*
X233115103Y-108574620D01*
X233115103Y-108574620D02*
X233162639Y-108669900D01*
X233162639Y-108669900D02*
X233210216Y-108717560D01*
X233210216Y-108717560D02*
X233305413Y-108765262D01*
X233305413Y-108765262D02*
X233591127Y-108765512D01*
X233591127Y-108765512D02*
X233686406Y-108717976D01*
X233686406Y-108717976D02*
X233734067Y-108670398D01*
X214647534Y-67047002D02*
X214506843Y-67100684D01*
X214506843Y-67100684D02*
X214268966Y-67110862D01*
X214268966Y-67110862D02*
X214171779Y-67067358D01*
X214171779Y-67067358D02*
X214122168Y-67021818D01*
X214122168Y-67021818D02*
X214070521Y-66928702D01*
X214070521Y-66928702D02*
X214066450Y-66833551D01*
X214066450Y-66833551D02*
X214109954Y-66736365D01*
X214109954Y-66736365D02*
X214155494Y-66686753D01*
X214155494Y-66686753D02*
X214248610Y-66635107D01*
X214248610Y-66635107D02*
X214436876Y-66579389D01*
X214436876Y-66579389D02*
X214529992Y-66527742D01*
X214529992Y-66527742D02*
X214575532Y-66478131D01*
X214575532Y-66478131D02*
X214619036Y-66380944D01*
X214619036Y-66380944D02*
X214614965Y-66285793D01*
X214614965Y-66285793D02*
X214563318Y-66192678D01*
X214563318Y-66192678D02*
X214513707Y-66147138D01*
X214513707Y-66147138D02*
X214416520Y-66103634D01*
X214416520Y-66103634D02*
X214178643Y-66113812D01*
X214178643Y-66113812D02*
X214037952Y-66167494D01*
X213702887Y-66134168D02*
X213507757Y-67143431D01*
X213507757Y-67143431D02*
X213286921Y-66437941D01*
X213286921Y-66437941D02*
X213127153Y-67159716D01*
X213127153Y-67159716D02*
X212846528Y-66170808D01*
X212561075Y-66183022D02*
X211895018Y-66211520D01*
X211895018Y-66211520D02*
X212365945Y-67192286D01*
X216135148Y-101815191D02*
X215994457Y-101868873D01*
X215994457Y-101868873D02*
X215756580Y-101879051D01*
X215756580Y-101879051D02*
X215659393Y-101835547D01*
X215659393Y-101835547D02*
X215609782Y-101790007D01*
X215609782Y-101790007D02*
X215558135Y-101696891D01*
X215558135Y-101696891D02*
X215554064Y-101601740D01*
X215554064Y-101601740D02*
X215597568Y-101504554D01*
X215597568Y-101504554D02*
X215643108Y-101454942D01*
X215643108Y-101454942D02*
X215736224Y-101403296D01*
X215736224Y-101403296D02*
X215924490Y-101347578D01*
X215924490Y-101347578D02*
X216017606Y-101295931D01*
X216017606Y-101295931D02*
X216063146Y-101246320D01*
X216063146Y-101246320D02*
X216106650Y-101149133D01*
X216106650Y-101149133D02*
X216102579Y-101053982D01*
X216102579Y-101053982D02*
X216050932Y-100960867D01*
X216050932Y-100960867D02*
X216001321Y-100915327D01*
X216001321Y-100915327D02*
X215904134Y-100871823D01*
X215904134Y-100871823D02*
X215666257Y-100882001D01*
X215666257Y-100882001D02*
X215525566Y-100935683D01*
X215190501Y-100902357D02*
X214995371Y-101911620D01*
X214995371Y-101911620D02*
X214774535Y-101206130D01*
X214774535Y-101206130D02*
X214614767Y-101927905D01*
X214614767Y-101927905D02*
X214334142Y-100938997D01*
X213948710Y-101956404D02*
X213758408Y-101964546D01*
X213758408Y-101964546D02*
X213661221Y-101921042D01*
X213661221Y-101921042D02*
X213611610Y-101875502D01*
X213611610Y-101875502D02*
X213510352Y-101736846D01*
X213510352Y-101736846D02*
X213454635Y-101548580D01*
X213454635Y-101548580D02*
X213438350Y-101167976D01*
X213438350Y-101167976D02*
X213481854Y-101070789D01*
X213481854Y-101070789D02*
X213527394Y-101021178D01*
X213527394Y-101021178D02*
X213620509Y-100969531D01*
X213620509Y-100969531D02*
X213810812Y-100961389D01*
X213810812Y-100961389D02*
X213907998Y-101004893D01*
X213907998Y-101004893D02*
X213957609Y-101050433D01*
X213957609Y-101050433D02*
X214009256Y-101143549D01*
X214009256Y-101143549D02*
X214019434Y-101381426D01*
X214019434Y-101381426D02*
X213975930Y-101478613D01*
X213975930Y-101478613D02*
X213930390Y-101528224D01*
X213930390Y-101528224D02*
X213837274Y-101579871D01*
X213837274Y-101579871D02*
X213646972Y-101588013D01*
X213646972Y-101588013D02*
X213549786Y-101544509D01*
X213549786Y-101544509D02*
X213500174Y-101498969D01*
X213500174Y-101498969D02*
X213448528Y-101405853D01*
%TO.C,SW16*%
X246890307Y-96342293D02*
X247389870Y-96842729D01*
X246893361Y-92842295D02*
X247393797Y-92342731D01*
X247389870Y-96842729D02*
X249889869Y-96844911D01*
X247393797Y-92342731D02*
X250393796Y-92345349D01*
X250393796Y-92345349D02*
X250893360Y-92845785D01*
X250892487Y-93845785D02*
X250893360Y-92845785D01*
X251387949Y-99046219D02*
X255887947Y-99050146D01*
X251388560Y-98346219D02*
X251387949Y-99046219D01*
X255887947Y-99050146D02*
X255888384Y-98550146D01*
X255891525Y-94950148D02*
X255892049Y-94350148D01*
X255892049Y-94350148D02*
X251392051Y-94346221D01*
X249889869Y-96844911D02*
G75*
G02*
X251388560Y-98346219I-1309J-1500000D01*
G01*
X251392051Y-94346221D02*
G75*
G02*
X250892487Y-93845785I436J500000D01*
G01*
%TO.C,SW1*%
X165119298Y-90619355D02*
X165530419Y-90044047D01*
X165530419Y-90044047D02*
X168489707Y-89551487D01*
X165693952Y-94071858D02*
X166269260Y-94482979D01*
X166269260Y-94482979D02*
X168735333Y-94072512D01*
X168489707Y-89551487D02*
X169065015Y-89962608D01*
X169229202Y-90949037D02*
X169065015Y-89962608D01*
X170461257Y-95305876D02*
X170576188Y-95996376D01*
X170576188Y-95996376D02*
X175015120Y-95257535D01*
X174243441Y-90621318D02*
X169804510Y-91360158D01*
X174341953Y-91213175D02*
X174243441Y-90621318D01*
X175015120Y-95257535D02*
X174933026Y-94764321D01*
X168735333Y-94072512D02*
G75*
G02*
X170461257Y-95305876I246280J-1479644D01*
G01*
X169804510Y-91360158D02*
G75*
G02*
X169229202Y-90949037I-82094J493214D01*
G01*
%TO.C,SW10*%
X224856631Y-134923080D02*
X225356194Y-135423516D01*
X224859685Y-131423082D02*
X225360121Y-130923518D01*
X225356194Y-135423516D02*
X227856193Y-135425698D01*
X225360121Y-130923518D02*
X228360120Y-130926136D01*
X228360120Y-130926136D02*
X228859684Y-131426572D01*
X228858811Y-132426572D02*
X228859684Y-131426572D01*
X229354273Y-137627006D02*
X233854271Y-137630933D01*
X229354884Y-136927006D02*
X229354273Y-137627006D01*
X233854271Y-137630933D02*
X233854708Y-137130933D01*
X233857849Y-133530935D02*
X233858373Y-132930935D01*
X233858373Y-132930935D02*
X229358375Y-132927008D01*
X227856193Y-135425698D02*
G75*
G02*
X229354884Y-136927006I-1309J-1500000D01*
G01*
X229358375Y-132927008D02*
G75*
G02*
X228858811Y-132426572I436J500000D01*
G01*
%TO.C,SW4*%
X185800956Y-74975414D02*
X186251207Y-74430186D01*
X186133375Y-78459592D02*
X186678604Y-78909844D01*
X186251207Y-74430186D02*
X189237645Y-74145255D01*
X186678604Y-78909844D02*
X189167302Y-78672401D01*
X189237645Y-74145255D02*
X189782873Y-74595506D01*
X189877851Y-75590985D02*
X189782873Y-74595506D01*
X190802987Y-80023155D02*
X190869471Y-80719990D01*
X190869471Y-80719990D02*
X195349129Y-80292593D01*
X194902736Y-75613840D02*
X190423079Y-76041237D01*
X194959723Y-76211128D02*
X194902736Y-75613840D01*
X195349129Y-80292593D02*
X195301640Y-79794854D01*
X189167302Y-78672401D02*
G75*
G02*
X190802987Y-80023155I142466J-1493219D01*
G01*
X190423079Y-76041237D02*
G75*
G02*
X189877850Y-75590985I-47489J497740D01*
G01*
%TO.C,SW8*%
X207599292Y-84276847D02*
X208077461Y-83755930D01*
X207748909Y-87773647D02*
X208269825Y-88251816D01*
X208077461Y-83755930D02*
X211074719Y-83627687D01*
X208269825Y-88251816D02*
X210767540Y-88144948D01*
X211074719Y-83627687D02*
X211595636Y-84105856D01*
X211638383Y-85104942D02*
X211595636Y-84105856D01*
X212330290Y-89579455D02*
X212360213Y-90278815D01*
X212360213Y-90278815D02*
X216856100Y-90086451D01*
X216655187Y-85390748D02*
X212159300Y-85583112D01*
X216680835Y-85990199D02*
X216655187Y-85390748D01*
X216856100Y-90086451D02*
X216834726Y-89586908D01*
X210767540Y-88144948D02*
G75*
G02*
X212330289Y-89579455I64121J-1498628D01*
G01*
X212159300Y-85583112D02*
G75*
G02*
X211638383Y-85104942I-21374J499543D01*
G01*
%TO.C,SW14*%
X248238463Y-137665497D02*
X248591481Y-138278176D01*
X248591481Y-138278176D02*
X251005730Y-138927332D01*
X249147279Y-134285549D02*
X249759960Y-133932529D01*
X249759960Y-133932529D02*
X252657059Y-134711515D01*
X251883024Y-141441364D02*
X256228672Y-142609842D01*
X252064787Y-140765374D02*
X251883024Y-141441364D01*
X252657059Y-134711515D02*
X253010078Y-135324196D01*
X252750416Y-136289894D02*
X253010078Y-135324196D01*
X256228672Y-142609842D02*
X256358503Y-142126993D01*
X257293285Y-138650475D02*
X257449083Y-138071055D01*
X257449083Y-138071055D02*
X253103435Y-136902576D01*
X251005730Y-138927332D02*
G75*
G02*
X252064788Y-140765374I-389492J-1448550D01*
G01*
X253103435Y-136902576D02*
G75*
G02*
X252750416Y-136289894I129831J482850D01*
G01*
%TO.C,SW18*%
X269736941Y-146290027D02*
X269919357Y-146973199D01*
X269919357Y-146973199D02*
X272083329Y-148225088D01*
X271489585Y-143260467D02*
X272172757Y-143078050D01*
X272172757Y-143078050D02*
X274769524Y-144580317D01*
X272280050Y-150880517D02*
X276175200Y-153133916D01*
X272630580Y-150274604D02*
X272280050Y-150880517D01*
X274451185Y-146129078D02*
X274951941Y-145263489D01*
X274769524Y-144580317D02*
X274951941Y-145263489D01*
X276175200Y-153133916D02*
X276425577Y-152701123D01*
X278228297Y-149585003D02*
X278528751Y-149065650D01*
X278528751Y-149065650D02*
X274633602Y-146812250D01*
X272083329Y-148225088D02*
G75*
G02*
X272630579Y-150274604I-751133J-1298383D01*
G01*
X274633602Y-146812250D02*
G75*
G02*
X274451184Y-146129078I250377J432795D01*
G01*
%TO.C,SW2*%
X167976149Y-107783224D02*
X168387270Y-107207916D01*
X168387270Y-107207916D02*
X171346558Y-106715356D01*
X168550803Y-111235727D02*
X169126111Y-111646848D01*
X169126111Y-111646848D02*
X171592184Y-111236381D01*
X171346558Y-106715356D02*
X171921866Y-107126477D01*
X172086053Y-108112906D02*
X171921866Y-107126477D01*
X173318108Y-112469745D02*
X173433039Y-113160245D01*
X173433039Y-113160245D02*
X177871971Y-112421404D01*
X177100292Y-107785187D02*
X172661361Y-108524027D01*
X177198804Y-108377044D02*
X177100292Y-107785187D01*
X177871971Y-112421404D02*
X177789877Y-111928190D01*
X171592184Y-111236381D02*
G75*
G02*
X173318108Y-112469745I246280J-1479644D01*
G01*
X172661361Y-108524027D02*
G75*
G02*
X172086053Y-108112906I-82094J493214D01*
G01*
%TO.C,SW6*%
X189106158Y-109618099D02*
X189556409Y-109072871D01*
X189438577Y-113102277D02*
X189983806Y-113552529D01*
X189556409Y-109072871D02*
X192542847Y-108787940D01*
X189983806Y-113552529D02*
X192472504Y-113315086D01*
X192542847Y-108787940D02*
X193088075Y-109238191D01*
X193183053Y-110233670D02*
X193088075Y-109238191D01*
X194108189Y-114665840D02*
X194174673Y-115362675D01*
X194174673Y-115362675D02*
X198654331Y-114935278D01*
X198207938Y-110256525D02*
X193728281Y-110683922D01*
X198264925Y-110853813D02*
X198207938Y-110256525D01*
X198654331Y-114935278D02*
X198606842Y-114437539D01*
X192472504Y-113315086D02*
G75*
G02*
X194108189Y-114665840I142466J-1493219D01*
G01*
X193728281Y-110683922D02*
G75*
G02*
X193183052Y-110233670I-47489J497740D01*
G01*
%TO.C,SW11*%
X228507244Y-76926244D02*
X229006807Y-77426680D01*
X228510298Y-73426246D02*
X229010734Y-72926682D01*
X229006807Y-77426680D02*
X231506806Y-77428862D01*
X229010734Y-72926682D02*
X232010733Y-72929300D01*
X232010733Y-72929300D02*
X232510297Y-73429736D01*
X232509424Y-74429736D02*
X232510297Y-73429736D01*
X233004886Y-79630170D02*
X237504884Y-79634097D01*
X233005497Y-78930170D02*
X233004886Y-79630170D01*
X237504884Y-79634097D02*
X237505321Y-79134097D01*
X237508462Y-75534099D02*
X237508986Y-74934099D01*
X237508986Y-74934099D02*
X233008988Y-74930172D01*
X231506806Y-77428862D02*
G75*
G02*
X233005497Y-78930170I-1309J-1500000D01*
G01*
X233008988Y-74930172D02*
G75*
G02*
X232509424Y-74429736I436J500000D01*
G01*
%TO.C,SW17*%
X246875123Y-113742287D02*
X247374686Y-114242723D01*
X246878177Y-110242289D02*
X247378613Y-109742725D01*
X247374686Y-114242723D02*
X249874685Y-114244905D01*
X247378613Y-109742725D02*
X250378612Y-109745343D01*
X250378612Y-109745343D02*
X250878176Y-110245779D01*
X250877303Y-111245779D02*
X250878176Y-110245779D01*
X251372765Y-116446213D02*
X255872763Y-116450140D01*
X251373376Y-115746213D02*
X251372765Y-116446213D01*
X255872763Y-116450140D02*
X255873200Y-115950140D01*
X255876341Y-112350142D02*
X255876865Y-111750142D01*
X255876865Y-111750142D02*
X251376867Y-111746215D01*
X249874685Y-114244905D02*
G75*
G02*
X251373376Y-115746213I-1309J-1500000D01*
G01*
X251376867Y-111746215D02*
G75*
G02*
X250877303Y-111245779I436J500000D01*
G01*
%TO.C,SW3*%
X170833000Y-124947093D02*
X171244121Y-124371785D01*
X171244121Y-124371785D02*
X174203409Y-123879225D01*
X171407654Y-128399596D02*
X171982962Y-128810717D01*
X171982962Y-128810717D02*
X174449035Y-128400250D01*
X174203409Y-123879225D02*
X174778717Y-124290346D01*
X174942904Y-125276775D02*
X174778717Y-124290346D01*
X176174959Y-129633614D02*
X176289890Y-130324114D01*
X176289890Y-130324114D02*
X180728822Y-129585273D01*
X179957143Y-124949056D02*
X175518212Y-125687896D01*
X180055655Y-125540913D02*
X179957143Y-124949056D01*
X180728822Y-129585273D02*
X180646728Y-129092059D01*
X174449035Y-128400250D02*
G75*
G02*
X176174959Y-129633614I246280J-1479644D01*
G01*
X175518212Y-125687896D02*
G75*
G02*
X174942904Y-125276775I-82094J493214D01*
G01*
%TO.C,SW15*%
X246905491Y-78942300D02*
X247405054Y-79442736D01*
X246908545Y-75442302D02*
X247408981Y-74942738D01*
X247405054Y-79442736D02*
X249905053Y-79444918D01*
X247408981Y-74942738D02*
X250408980Y-74945356D01*
X250408980Y-74945356D02*
X250908544Y-75445792D01*
X250907671Y-76445792D02*
X250908544Y-75445792D01*
X251403133Y-81646226D02*
X255903131Y-81650153D01*
X251403744Y-80946226D02*
X251403133Y-81646226D01*
X255903131Y-81650153D02*
X255903568Y-81150153D01*
X255906709Y-77550155D02*
X255907233Y-76950155D01*
X255907233Y-76950155D02*
X251407235Y-76946228D01*
X249905053Y-79444918D02*
G75*
G02*
X251403744Y-80946226I-1309J-1500000D01*
G01*
X251407235Y-76946228D02*
G75*
G02*
X250907671Y-76445792I436J500000D01*
G01*
%TO.C,SW5*%
X187453557Y-92296756D02*
X187903808Y-91751528D01*
X187785976Y-95780934D02*
X188331205Y-96231186D01*
X187903808Y-91751528D02*
X190890246Y-91466597D01*
X188331205Y-96231186D02*
X190819903Y-95993743D01*
X190890246Y-91466597D02*
X191435474Y-91916848D01*
X191530452Y-92912327D02*
X191435474Y-91916848D01*
X192455588Y-97344497D02*
X192522072Y-98041332D01*
X192522072Y-98041332D02*
X197001730Y-97613935D01*
X196555337Y-92935182D02*
X192075680Y-93362579D01*
X196612324Y-93532470D02*
X196555337Y-92935182D01*
X197001730Y-97613935D02*
X196954241Y-97116196D01*
X190819903Y-95993743D02*
G75*
G02*
X192455588Y-97344497I142466J-1493219D01*
G01*
X192075680Y-93362579D02*
G75*
G02*
X191530451Y-92912327I-47489J497740D01*
G01*
%TO.C,SW12*%
X228492059Y-94326237D02*
X228991622Y-94826673D01*
X228495113Y-90826239D02*
X228995549Y-90326675D01*
X228991622Y-94826673D02*
X231491621Y-94828855D01*
X228995549Y-90326675D02*
X231995548Y-90329293D01*
X231995548Y-90329293D02*
X232495112Y-90829729D01*
X232494239Y-91829729D02*
X232495112Y-90829729D01*
X232989701Y-97030163D02*
X237489699Y-97034090D01*
X232990312Y-96330163D02*
X232989701Y-97030163D01*
X237489699Y-97034090D02*
X237490136Y-96534090D01*
X237493277Y-92934092D02*
X237493801Y-92334092D01*
X237493801Y-92334092D02*
X232993803Y-92330165D01*
X231491621Y-94828855D02*
G75*
G02*
X232990312Y-96330163I-1309J-1500000D01*
G01*
X232993803Y-92330165D02*
G75*
G02*
X232494239Y-91829729I436J500000D01*
G01*
%TO.C,SW13*%
X228476875Y-111726231D02*
X228976438Y-112226667D01*
X228479929Y-108226233D02*
X228980365Y-107726669D01*
X228976438Y-112226667D02*
X231476437Y-112228849D01*
X228980365Y-107726669D02*
X231980364Y-107729287D01*
X231980364Y-107729287D02*
X232479928Y-108229723D01*
X232479055Y-109229723D02*
X232479928Y-108229723D01*
X232974517Y-114430157D02*
X237474515Y-114434084D01*
X232975128Y-113730157D02*
X232974517Y-114430157D01*
X237474515Y-114434084D02*
X237474952Y-113934084D01*
X237478093Y-110334086D02*
X237478617Y-109734086D01*
X237478617Y-109734086D02*
X232978619Y-109730159D01*
X231476437Y-112228849D02*
G75*
G02*
X232975128Y-113730157I-1309J-1500000D01*
G01*
X232978619Y-109730159D02*
G75*
G02*
X232479055Y-109229723I436J500000D01*
G01*
%TO.C,SW7*%
X206855485Y-66892752D02*
X207333654Y-66371835D01*
X207005102Y-70389552D02*
X207526018Y-70867721D01*
X207333654Y-66371835D02*
X210330912Y-66243592D01*
X207526018Y-70867721D02*
X210023733Y-70760853D01*
X210330912Y-66243592D02*
X210851829Y-66721761D01*
X210894576Y-67720847D02*
X210851829Y-66721761D01*
X211586483Y-72195360D02*
X211616406Y-72894720D01*
X211616406Y-72894720D02*
X216112293Y-72702356D01*
X215911380Y-68006653D02*
X211415493Y-68199017D01*
X215937028Y-68606104D02*
X215911380Y-68006653D01*
X216112293Y-72702356D02*
X216090919Y-72202813D01*
X210023733Y-70760853D02*
G75*
G02*
X211586482Y-72195360I64121J-1498628D01*
G01*
X211415493Y-68199017D02*
G75*
G02*
X210894576Y-67720847I-21374J499543D01*
G01*
%TO.C,SW9*%
X208343099Y-101660941D02*
X208821268Y-101140024D01*
X208492716Y-105157741D02*
X209013632Y-105635910D01*
X208821268Y-101140024D02*
X211818526Y-101011781D01*
X209013632Y-105635910D02*
X211511347Y-105529042D01*
X211818526Y-101011781D02*
X212339443Y-101489950D01*
X212382190Y-102489036D02*
X212339443Y-101489950D01*
X213074097Y-106963549D02*
X213104020Y-107662909D01*
X213104020Y-107662909D02*
X217599907Y-107470545D01*
X217398994Y-102774842D02*
X212903107Y-102967206D01*
X217424642Y-103374293D02*
X217398994Y-102774842D01*
X217599907Y-107470545D02*
X217578533Y-106971002D01*
X211511347Y-105529042D02*
G75*
G02*
X213074096Y-106963549I64121J-1498628D01*
G01*
X212903107Y-102967206D02*
G75*
G02*
X212382190Y-102489036I-21374J499543D01*
G01*
%TD*%
M02*
