M48
; DRILL file {KiCad 9.0.4} date 2026-04-25T20:53:46-0400
; FORMAT={-:-/ absolute / metric / decimal}
; #@! TF.CreationDate,2026-04-25T20:53:46-04:00
; #@! TF.GenerationSoftware,Kicad,Pcbnew,9.0.4
; #@! TF.FileFunction,Plated,1,2,PTH
FMAT,2
METRIC
; #@! TA.AperFunction,Plated,PTH,ComponentDrill
T1C0.900
; #@! TA.AperFunction,Plated,PTH,ComponentDrill
T2C1.000
; #@! TA.AperFunction,Plated,PTH,ComponentDrill
T3C1.270
; #@! TA.AperFunction,Plated,PTH,ComponentDrill
T4C2.200
%
G90
G05
T2
X263.38Y-72.09
X263.38Y-74.63
X263.38Y-77.17
X263.38Y-79.71
X263.38Y-82.25
X263.38Y-84.79
X263.38Y-87.33
X263.38Y-89.87
X263.38Y-92.41
X263.38Y-94.95
X263.38Y-97.49
X263.38Y-100.03
X263.38Y-102.57
X265.92Y-102.57
X268.46Y-102.57
X271.0Y-102.57
X273.54Y-102.57
X276.08Y-102.57
X278.62Y-72.09
X278.62Y-74.63
X278.62Y-77.17
X278.62Y-79.71
X278.62Y-82.25
X278.62Y-84.79
X278.62Y-87.33
X278.62Y-89.87
X278.62Y-92.41
X278.62Y-94.95
X278.62Y-97.49
X278.62Y-100.03
X278.62Y-102.57
T3
X164.048Y-102.456
X166.905Y-119.62
X169.325Y-103.706
X169.762Y-136.784
X172.182Y-120.87
X175.039Y-138.034
X183.907Y-86.708
X185.559Y-104.03
X187.212Y-121.351
X189.084Y-88.324
X190.736Y-105.645
X192.389Y-122.967
X204.35Y-78.51
X205.094Y-95.895
X205.837Y-113.279
X209.435Y-80.395
X210.179Y-97.779
X210.923Y-115.163
X221.85Y-142.92
X225.47Y-119.724
X225.485Y-102.324
X225.5Y-84.924
X226.848Y-145.025
X230.468Y-121.828
X230.483Y-104.428
X230.498Y-87.028
X243.264Y-144.612
X243.868Y-121.74
X243.883Y-104.34
X243.899Y-86.94
X247.547Y-147.938
X248.866Y-123.844
X248.881Y-106.444
X248.897Y-89.044
X263.134Y-151.712
X266.41Y-156.034
T4
X166.107Y-84.372
X211.256Y-122.956
X230.511Y-67.42
X275.864Y-126.436
X285.309Y-75.502
T1
G00X279.012Y-109.7
M15
G01X278.613Y-109.7
M16
G05
G00X280.113Y-114.3
M15
G01X279.712Y-114.3
M16
G05
G00X284.113Y-114.3
M15
G01X283.712Y-114.3
M16
G05
G00X287.113Y-114.3
M15
G01X286.712Y-114.3
M16
G05
M30
