M48
; DRILL file {KiCad 9.0.4} date 2026-04-25T20:53:46-0400
; FORMAT={-:-/ absolute / metric / decimal}
; #@! TF.CreationDate,2026-04-25T20:53:46-04:00
; #@! TF.GenerationSoftware,Kicad,Pcbnew,9.0.4
; #@! TF.FileFunction,NonPlated,1,2,NPTH
FMAT,2
METRIC
; #@! TA.AperFunction,NonPlated,NPTH,ComponentDrill
T1C0.800
; #@! TA.AperFunction,NonPlated,NPTH,ComponentDrill
T2C1.702
; #@! TA.AperFunction,NonPlated,NPTH,ComponentDrill
T3C3.000
; #@! TA.AperFunction,NonPlated,NPTH,ComponentDrill
T4C3.429
%
G90
G05
T1
X281.512Y-112.0
X288.512Y-112.0
T2
X162.931Y-98.79
X165.788Y-115.953
X168.645Y-133.117
X173.782Y-96.983
X176.639Y-114.147
X179.495Y-131.311
X183.048Y-82.973
X184.701Y-100.294
X186.353Y-117.616
X193.998Y-81.928
X195.651Y-99.25
X197.304Y-116.571
X203.688Y-74.735
X204.432Y-92.119
X205.175Y-109.504
X214.678Y-74.265
X215.422Y-91.649
X216.165Y-109.033
X221.353Y-139.12
X224.973Y-115.923
X224.988Y-98.523
X225.004Y-81.123
X232.353Y-139.13
X235.973Y-115.933
X235.988Y-98.533
X236.004Y-81.133
X243.371Y-117.939
X243.387Y-100.539
X243.402Y-83.139
X243.768Y-140.813
X254.371Y-117.949
X254.387Y-100.549
X254.391Y-143.669
X254.402Y-83.149
X264.604Y-148.173
X274.126Y-153.681
T3
X167.379Y-92.017
X170.236Y-109.181
X172.673Y-93.366
X173.093Y-126.345
X175.53Y-110.53
X178.387Y-127.694
X187.958Y-76.528
X189.611Y-93.849
X191.263Y-111.17
X193.144Y-78.243
X194.797Y-95.564
X196.45Y-112.885
X208.928Y-68.556
X209.672Y-85.94
X210.416Y-103.324
X214.018Y-70.54
X214.762Y-87.924
X215.506Y-105.308
X226.858Y-133.175
X230.478Y-109.978
X230.494Y-92.578
X230.509Y-75.178
X231.856Y-135.379
X235.476Y-112.182
X235.492Y-94.782
X235.507Y-77.382
X248.877Y-111.994
X248.892Y-94.594
X248.907Y-77.194
X250.624Y-136.495
X253.875Y-114.198
X253.89Y-96.798
X253.905Y-79.398
X254.882Y-139.918
X272.344Y-145.777
X275.571Y-150.185
T4
X168.356Y-97.886
X171.213Y-115.05
X174.07Y-132.214
X188.523Y-82.451
X190.176Y-99.772
X191.828Y-117.093
X209.183Y-74.5
X209.927Y-91.884
X210.67Y-109.268
X226.853Y-139.125
X230.473Y-115.928
X230.488Y-98.528
X230.504Y-81.128
X248.871Y-117.944
X248.887Y-100.544
X248.902Y-83.144
X249.079Y-142.241
X269.365Y-150.927
M30
