%TF.GenerationSoftware,KiCad,Pcbnew,9.0.4*%
%TF.CreationDate,2026-04-25T20:53:58-04:00*%
%TF.ProjectId,klorball35_left,6b6c6f72-6261-46c6-9c33-355f6c656674,1*%
%TF.SameCoordinates,Original*%
%TF.FileFunction,Profile,NP*%
%FSLAX46Y46*%
G04 Gerber Fmt 4.6, Leading zero omitted, Abs format (unit mm)*
G04 Created by KiCad (PCBNEW 9.0.4) date 2026-04-25 20:53:58*
%MOMM*%
%LPD*%
G01*
G04 APERTURE LIST*
%TA.AperFunction,Profile*%
%ADD10C,0.150000*%
%TD*%
G04 APERTURE END LIST*
D10*
X195845112Y-65030271D02*
G75*
G02*
X197755768Y-62908096I1996188J123971D01*
G01*
X195957224Y-66835074D02*
X195845111Y-65030271D01*
X174190836Y-72768388D02*
G75*
G02*
X175984935Y-70825271I1999464J-46312D01*
G01*
X290230858Y-130645065D02*
X287496147Y-146301046D01*
X290310968Y-72685176D02*
X290260687Y-130302671D01*
X153833980Y-80839537D02*
X172449137Y-77741125D01*
X221255333Y-61902632D02*
X221520336Y-61920141D01*
X174120227Y-75814613D02*
G75*
G02*
X172449137Y-77741127I-1999427J46313D01*
G01*
X164097756Y-147661178D02*
G75*
G02*
X161792331Y-145990400I-328356J1972878D01*
G01*
X221520336Y-61920141D02*
X241129498Y-61937253D01*
X243127739Y-63929808D02*
X243145321Y-68653205D01*
X190377212Y-143287078D02*
X164097756Y-147661179D01*
X175984938Y-70825305D02*
X194166433Y-68948503D01*
X195957224Y-66835074D02*
G75*
G02*
X194166433Y-68948505I-1996124J-124026D01*
G01*
X254955566Y-157388642D02*
G75*
G02*
X255401272Y-157578680I-555766J-1921158D01*
G01*
X245143562Y-70645759D02*
G75*
G02*
X243145354Y-68653205I1738J1999959D01*
G01*
X275667270Y-166992290D02*
G75*
G02*
X272934583Y-167721954I-1731170J1001490D01*
G01*
X287257155Y-146958418D02*
X275667271Y-166992290D01*
X288312714Y-70683432D02*
G75*
G02*
X290310968Y-72685176I-1714J-1999968D01*
G01*
X254955566Y-157388642D02*
X237335041Y-152291037D01*
X174120227Y-75814612D02*
X174190836Y-72768388D01*
X161792327Y-145990401D02*
X152185299Y-83114476D01*
X190377212Y-143287078D02*
G75*
G02*
X190639750Y-143261017I328388J-1972722D01*
G01*
X213343564Y-149890878D02*
X213348197Y-144581803D01*
X211282362Y-142581141D02*
X190639750Y-143261020D01*
X290260688Y-130302671D02*
G75*
G02*
X290230852Y-130645064I-1999888J1771D01*
G01*
X241129497Y-61937253D02*
G75*
G02*
X243127834Y-63929808I-1697J-2000047D01*
G01*
X197755768Y-62908100D02*
X221255333Y-61902632D01*
X152185299Y-83114476D02*
G75*
G02*
X153833975Y-80839505I1977101J302076D01*
G01*
X215313786Y-151892401D02*
G75*
G02*
X213343578Y-149890878I29814J1999801D01*
G01*
X272934582Y-167721957D02*
X255401270Y-157578683D01*
X211282363Y-142581141D02*
G75*
G02*
X213348242Y-144581803I65837J-1998959D01*
G01*
X287496147Y-146301046D02*
G75*
G02*
X287257151Y-146958415I-1970147J344146D01*
G01*
X236809012Y-152212477D02*
X215313786Y-151892402D01*
X236809012Y-152212477D02*
G75*
G02*
X237335038Y-152291048I-29812J-1999723D01*
G01*
X245143562Y-70645760D02*
X288312714Y-70683432D01*
M02*
