%TF.GenerationSoftware,KiCad,Pcbnew,9.0.4*%
%TF.CreationDate,2026-04-25T20:53:58-04:00*%
%TF.ProjectId,klorball35_left,6b6c6f72-6261-46c6-9c33-355f6c656674,1*%
%TF.SameCoordinates,Original*%
%TF.FileFunction,Soldermask,Top*%
%TF.FilePolarity,Negative*%
%FSLAX46Y46*%
G04 Gerber Fmt 4.6, Leading zero omitted, Abs format (unit mm)*
G04 Created by KiCad (PCBNEW 9.0.4) date 2026-04-25 20:53:58*
%MOMM*%
%LPD*%
G01*
G04 APERTURE LIST*
G04 Aperture macros list*
%AMRoundRect*
0 Rectangle with rounded corners*
0 $1 Rounding radius*
0 $2 $3 $4 $5 $6 $7 $8 $9 X,Y pos of 4 corners*
0 Add a 4 corners polygon primitive as box body*
4,1,4,$2,$3,$4,$5,$6,$7,$8,$9,$2,$3,0*
0 Add four circle primitives for the rounded corners*
1,1,$1+$1,$2,$3*
1,1,$1+$1,$4,$5*
1,1,$1+$1,$6,$7*
1,1,$1+$1,$8,$9*
0 Add four rect primitives between the rounded corners*
20,1,$1+$1,$2,$3,$4,$5,0*
20,1,$1+$1,$4,$5,$6,$7,0*
20,1,$1+$1,$6,$7,$8,$9,0*
20,1,$1+$1,$8,$9,$2,$3,0*%
G04 Aperture macros list end*
%ADD10C,1.701800*%
%ADD11C,3.000000*%
%ADD12C,3.429000*%
%ADD13C,2.032000*%
%ADD14C,4.400000*%
%ADD15C,0.800000*%
%ADD16O,2.000000X1.600000*%
%ADD17RoundRect,0.450000X-1.300000X-0.450000X1.300000X-0.450000X1.300000X0.450000X-1.300000X0.450000X0*%
%ADD18C,1.800000*%
%ADD19RoundRect,0.450000X-0.450000X-0.450000X0.450000X-0.450000X0.450000X0.450000X-0.450000X0.450000X0*%
%ADD20RoundRect,0.450000X0.450000X-1.300000X0.450000X1.300000X-0.450000X1.300000X-0.450000X-1.300000X0*%
%ADD21RoundRect,0.450000X1.300000X0.450000X-1.300000X0.450000X-1.300000X-0.450000X1.300000X-0.450000X0*%
G04 APERTURE END LIST*
D10*
%TO.C,SW16*%
X243386645Y-100539237D03*
D11*
X248891833Y-94594039D03*
D12*
X248886641Y-100544037D03*
D11*
X253889912Y-96798402D03*
D10*
X254386637Y-100548837D03*
D13*
X248881492Y-106444035D03*
X243883327Y-104339672D03*
%TD*%
D14*
%TO.C,H3*%
X230510999Y-67420137D03*
%TD*%
D10*
%TO.C,SW1*%
X162931034Y-98789515D03*
D11*
X167379483Y-92017233D03*
D12*
X168356395Y-97886487D03*
D11*
X172672841Y-93366443D03*
D10*
X173781756Y-96983459D03*
D13*
X169325097Y-103706420D03*
X164048159Y-102455852D03*
%TD*%
D10*
%TO.C,SW10*%
X221352969Y-139120024D03*
D11*
X226858157Y-133174826D03*
D12*
X226852965Y-139124824D03*
D11*
X231856236Y-135379189D03*
D10*
X232352961Y-139129624D03*
D13*
X226847816Y-145024822D03*
X221849651Y-142920459D03*
%TD*%
D10*
%TO.C,SW4*%
X183048101Y-82973026D03*
D11*
X187958124Y-76527549D03*
D12*
X188523238Y-82450652D03*
D11*
X193144471Y-78242719D03*
D10*
X193998375Y-81928278D03*
D13*
X189083603Y-88323981D03*
X183906754Y-86708359D03*
%TD*%
D10*
%TO.C,SW8*%
X204431649Y-92119424D03*
D11*
X209672272Y-85939752D03*
D12*
X209926620Y-91884313D03*
D11*
X214761746Y-87924003D03*
D10*
X215421591Y-91649202D03*
D13*
X210178830Y-97778920D03*
X205093631Y-95894577D03*
%TD*%
D14*
%TO.C,H2*%
X211256069Y-122955884D03*
%TD*%
D10*
%TO.C,SW14*%
X243767936Y-140812619D03*
D11*
X250624270Y-136494846D03*
D12*
X249079282Y-142240759D03*
D11*
X254881512Y-139917695D03*
D10*
X254390628Y-143668899D03*
D13*
X247547277Y-147938387D03*
X243264069Y-144612108D03*
%TD*%
D14*
%TO.C,H4*%
X275864042Y-126436174D03*
%TD*%
D10*
%TO.C,SW18*%
X264604209Y-148172856D03*
D11*
X272344441Y-145776758D03*
D12*
X269364945Y-150927011D03*
D11*
X275570722Y-150184831D03*
D10*
X274125681Y-153681166D03*
D13*
X266410487Y-156033985D03*
X263134130Y-151712470D03*
%TD*%
D10*
%TO.C,SW2*%
X165787885Y-115953384D03*
D11*
X170236334Y-109181102D03*
D12*
X171213246Y-115050356D03*
D11*
X175529692Y-110530312D03*
D10*
X176638607Y-114147328D03*
D13*
X172181948Y-120870289D03*
X166905010Y-119619721D03*
%TD*%
D10*
%TO.C,SW6*%
X186353303Y-117615711D03*
D11*
X191263326Y-111170234D03*
D12*
X191828440Y-117093337D03*
D11*
X196449673Y-112885404D03*
D10*
X197303577Y-116570963D03*
D13*
X192388805Y-122966666D03*
X187211956Y-121351044D03*
%TD*%
D14*
%TO.C,H5*%
X285309240Y-75501901D03*
%TD*%
D10*
%TO.C,SW11*%
X225003582Y-81123188D03*
D11*
X230508770Y-75177990D03*
D12*
X230503578Y-81127988D03*
D11*
X235506849Y-77382353D03*
D10*
X236003574Y-81132788D03*
D13*
X230498429Y-87027986D03*
X225500264Y-84923623D03*
%TD*%
D14*
%TO.C,H1*%
X166107035Y-84372406D03*
%TD*%
D10*
%TO.C,SW17*%
X243371461Y-117939231D03*
D11*
X248876649Y-111994033D03*
D12*
X248871457Y-117944031D03*
D11*
X253874728Y-114198396D03*
D10*
X254371453Y-117948831D03*
D13*
X248866308Y-123844029D03*
X243868143Y-121739666D03*
%TD*%
D15*
%TO.C,J1*%
X288512500Y-112000000D03*
X281512500Y-112000000D03*
D16*
X283912500Y-114300000D03*
X286912500Y-114300000D03*
X278812500Y-109700000D03*
X279912500Y-114300000D03*
%TD*%
D10*
%TO.C,SW3*%
X168644736Y-133117253D03*
D11*
X173093185Y-126344971D03*
D12*
X174070097Y-132214225D03*
D11*
X178386543Y-127694181D03*
D10*
X179495458Y-131311197D03*
D13*
X175038799Y-138034158D03*
X169761861Y-136783590D03*
%TD*%
D17*
%TO.C,U1*%
X262080000Y-74630000D03*
D18*
X263380000Y-74630000D03*
D17*
X262080000Y-77170000D03*
D18*
X263380000Y-77170000D03*
D17*
X262080000Y-79710000D03*
D19*
X263380000Y-79710000D03*
D17*
X262080000Y-82250000D03*
D19*
X263380000Y-82250000D03*
D17*
X262080000Y-84790000D03*
D18*
X263380000Y-84790000D03*
D17*
X262080000Y-87330000D03*
D18*
X263380000Y-87330000D03*
D17*
X262080000Y-89870000D03*
D18*
X263380000Y-89870000D03*
D17*
X262080000Y-92410000D03*
D18*
X263380000Y-92410000D03*
D17*
X262080000Y-94950000D03*
D18*
X263380000Y-94950000D03*
D17*
X262080001Y-97490000D03*
D18*
X263380000Y-97490000D03*
D17*
X262080000Y-100030000D03*
D18*
X263380000Y-100030000D03*
D17*
X262080000Y-102570000D03*
D18*
X263380000Y-102570000D03*
X278620000Y-74630000D03*
D17*
X279920000Y-74630000D03*
D19*
X278620000Y-77170000D03*
D17*
X279920000Y-77170000D03*
D18*
X278620000Y-79710000D03*
D17*
X279919999Y-79710000D03*
D18*
X278620000Y-82250000D03*
D17*
X279920000Y-82250000D03*
D18*
X278620000Y-84790000D03*
D17*
X279920000Y-84790000D03*
D18*
X278620000Y-87330000D03*
D17*
X279920000Y-87330000D03*
D18*
X278620000Y-89870000D03*
D17*
X279920000Y-89870000D03*
D18*
X278620000Y-92410000D03*
D17*
X279920000Y-92410000D03*
D18*
X278620000Y-94950000D03*
D17*
X279920000Y-94950000D03*
D18*
X278620000Y-97490000D03*
D17*
X279920000Y-97490000D03*
D18*
X278620000Y-100030000D03*
D17*
X279920000Y-100030000D03*
D18*
X278620000Y-102570000D03*
D17*
X279920000Y-102570000D03*
D18*
X265920000Y-102570000D03*
D20*
X265920000Y-103870000D03*
D18*
X268460000Y-102570000D03*
D20*
X268460000Y-103870000D03*
D18*
X271000000Y-102570000D03*
D20*
X271000000Y-103870000D03*
D18*
X273540000Y-102570000D03*
D20*
X273540000Y-103870000D03*
D18*
X276080000Y-102570000D03*
D20*
X276080000Y-103870000D03*
D18*
X278620000Y-72090000D03*
D21*
X279920000Y-72090000D03*
D17*
X262080000Y-72090000D03*
D18*
X263380000Y-72090000D03*
%TD*%
D10*
%TO.C,SW15*%
X243401829Y-83139244D03*
D11*
X248907017Y-77194046D03*
D12*
X248901825Y-83144044D03*
D11*
X253905096Y-79398409D03*
D10*
X254401821Y-83148844D03*
D13*
X248896676Y-89044042D03*
X243898511Y-86939679D03*
%TD*%
D10*
%TO.C,SW5*%
X184700702Y-100294368D03*
D11*
X189610725Y-93848891D03*
D12*
X190175839Y-99771994D03*
D11*
X194797072Y-95564061D03*
D10*
X195650976Y-99249620D03*
D13*
X190736204Y-105645323D03*
X185559355Y-104029701D03*
%TD*%
D10*
%TO.C,SW12*%
X224988397Y-98523181D03*
D11*
X230493585Y-92577983D03*
D12*
X230488393Y-98527981D03*
D11*
X235491664Y-94782346D03*
D10*
X235988389Y-98532781D03*
D13*
X230483244Y-104427979D03*
X225485079Y-102323616D03*
%TD*%
D10*
%TO.C,SW13*%
X224973213Y-115923175D03*
D11*
X230478401Y-109977977D03*
D12*
X230473209Y-115927975D03*
D11*
X235476480Y-112182340D03*
D10*
X235973205Y-115932775D03*
D13*
X230468060Y-121827973D03*
X225469895Y-119723610D03*
%TD*%
D10*
%TO.C,SW7*%
X203687842Y-74735329D03*
D11*
X208928465Y-68555657D03*
D12*
X209182813Y-74500218D03*
D11*
X214017939Y-70539908D03*
D10*
X214677784Y-74265107D03*
D13*
X209435023Y-80394825D03*
X204349824Y-78510482D03*
%TD*%
D10*
%TO.C,SW9*%
X205175456Y-109503518D03*
D11*
X210416079Y-103323846D03*
D12*
X210670427Y-109268407D03*
D11*
X215505553Y-105308097D03*
D10*
X216165398Y-109033296D03*
D13*
X210922637Y-115163014D03*
X205837438Y-113278671D03*
%TD*%
M02*
